# xmcd
#
# Track frame offsets: 
#        150
#        14391
#        37493
#        53610
#        75864
#        94235
#        113664
#        136674
#        152855
#        186216
#        202423
#        215800
#
# Disc length: 3125 seconds
#
# Revision: 0
# Processed by: cddbd v1.5.1PL0 Copyright (c) Steve Scherf et al.
# Submitted via: ExactAudioCopy v0.95b2
#
DISCID=a70c330c
DTITLE=Bella Fleck - Drive
DYEAR=2005
DGENRE=Bluegrass
TTITLE0=Whitewater
TTITLE1=Slipstream
TTITLE2=Up and Around the Bend
TTITLE3=Natchez Trace
TTITLE4=See Rock City
TTITLE5=The Legend
TTITLE6=The Lights of Home
TTITLE7=Down in the Swamp
TTITLE8=Sanctuary
TTITLE9=The Open Road
TTITLE10=Crucial County Breakdown
TTITLE11=Shuckin' The Corn
EXTD=
EXTT0=
EXTT1=
EXTT2=
EXTT3=
EXTT4=
EXTT5=
EXTT6=
EXTT7=
EXTT8=
EXTT9=
EXTT10=
EXTT11=
PLAYORDER=
